<svg xmlns="http://www.w3.org/2000/svg" viewBox="0 0 470.74 68.72"><defs><style>.cls-1,.cls-2,.cls-4{fill:#fff;}.cls-2{font-size:15px;font-family:ArialMT, Arial;}.cls-3{fill:none;stroke:#fff;stroke-miterlimit:10;stroke-width:4px;}.cls-4{font-size:37.45px;font-family:MicrosoftJhengHeiBold, Microsoft JhengHei;font-weight:700;}</style></defs><title>logo_white</title><g id="text"><path class="cls-1" d="M68.37,34.24C70.3,51.18,53.29,69.75,32.49,68.68,16.64,67.86.31,52.74,0,35.05S15.42-.93,36.27,0C52.24.78,69.92,16.14,68.37,34.24Zm-64.94.19c.17,15.27,16,30.89,31.1,30.73S65.7,49.59,64.8,34.45C63.71,16,52.21,5.15,34.19,3.75,18.64,2.55,3.25,18.92,3.43,34.43Z"/><path class="cls-1" d="M56.33,34.14l5.56.33C62.85,47.83,52,59.81,37.06,62c-2.21-3.74.81-4,3.14-4.64,9.1-2.48,14.68-8.37,17.24-17-5.45,0-10.66.08-15.87,0-2.21,0-5.35,1.26-5.45-2.91a13.28,13.28,0,0,0-3.61.43c-1.54.61-2.87,2.31-4.36,2.4-5.41.29-10.84.11-16.87.11.92,5.84,4.81,10.45,10,13.92,2.41,1.59,5.55,2.06,8.15,3.42a6.6,6.6,0,0,1,2.65,3.79C16.53,59.72,6.81,49.18,6.63,34.36c6.17,1.76,6.73-2.66,8.06-7A20.55,20.55,0,0,1,34.32,13.09,20.87,20.87,0,0,1,54.41,27.44C55.16,29.62,55.69,31.87,56.33,34.14Zm-11.77-14c-7.71-4.92-15-4.69-20.55.26l8.05.58c-4.8,2.37-9.83-1.32-13.32,4.41H31.37c1.08,6,.66,6.2-9.06,5,2.64-.22,4.8-.3,6.92-.65a2.28,2.28,0,0,0,1.59-1.46,2.42,2.42,0,0,0-1.24-1.8,8.86,8.86,0,0,0-12.69,7.79c10.81,0,21.62,0,32.42-.08.87,0,1.73-1.17,2.59-1.79l-.55-1.25c-3.3,0-6.62-.18-9.9,0-4.29.3-5.81-1.3-4.44-5.71l11.57-.63.13-1.76L37.16,21.8l0-1.05ZM37.9,29H50.11C46.36,25.56,39.7,25.8,37.9,29Z"/><path class="cls-1" d="M60.12,30.7c-.92-1.17-2.17-2.2-2.71-3.53C53.09,16.49,45,10.46,34.5,10.35,23.72,10.25,15.69,16,11,27,10.49,28.09,9.51,28.92,8,30.8,8.3,18.1,20.12,7.41,33.32,6.46s25.75,9.51,28,23.19Z"/><path class="cls-1" d="M36.53,55.16V43.56h16.6C50.35,50.94,43.83,55.52,36.53,55.16Z"/><path class="cls-1" d="M15.45,43.47H32V54.88C25.76,55.81,18.69,51.12,15.45,43.47Z"/><text class="cls-2" transform="translate(81.06 54.36)">National Kinmen Senior High School</text><path class="cls-1" d="M124.21,39h-2.65a3.51,3.51,0,0,0-1,.08,7.86,7.86,0,0,1-1.45.17c-.61,0-1.22.05-1.82.1s-1,.14-1.45.2l-1.57.23a3.55,3.55,0,0,0-.47.09.75.75,0,0,1-.42,0,3.31,3.31,0,0,1-1.76-1.14,1.45,1.45,0,0,1-.18-.32c-.12-.32-.24-.65-.34-1a1.27,1.27,0,0,1,0-.39.85.85,0,0,1,.67-.77,1.34,1.34,0,0,1,.39-.07,14.61,14.61,0,0,0,1.84-.28l.9-.14a6.27,6.27,0,0,0,2-.78c.33-.19.67-.35,1-.52a3.09,3.09,0,0,0,.84-.54,1.86,1.86,0,0,0,.27-.29,2.79,2.79,0,0,1,.38-.39l.32-.28a3,3,0,0,0,.58-.74,2.82,2.82,0,0,1,.58-.71,4.27,4.27,0,0,0,.72-.86c.44-.68.92-1.34,1.39-2a6.75,6.75,0,0,0,.56-.93,9.07,9.07,0,0,1,.63-1.09,6.63,6.63,0,0,0,.63-1.14,3.6,3.6,0,0,1,.63-1,.92.92,0,0,0,.21-.46.57.57,0,0,0-.32-.63,1.31,1.31,0,0,0-.87-.07.67.67,0,0,0-.38.28,1.88,1.88,0,0,0-.12.18,1.32,1.32,0,0,1-.52.5,4.5,4.5,0,0,0-1.31,1,2.83,2.83,0,0,1-.25.24,2,2,0,0,0-.59.86c-.13.32-.24.63-.36.94a4,4,0,0,0-.2.89,21.53,21.53,0,0,1-.43,2.4,2.44,2.44,0,0,1-.37.86c-.33.49-.68,1-1,1.44a1,1,0,0,1-.92.43,1.57,1.57,0,0,1-1.2-.52c-.23-.25-.45-.51-.67-.79a2.57,2.57,0,0,1-.45-.85,6.5,6.5,0,0,0-.28-.68,4.1,4.1,0,0,0-.46-.78.73.73,0,0,1,0-1.07c.3-.39.61-.76.91-1.14.46-.58.92-1.14,1.36-1.73a6,6,0,0,0,.48-.81,2.27,2.27,0,0,1,.43-.55,1.56,1.56,0,0,0,.48-1.26.55.55,0,0,0-.31-.49l-.09,0a5.07,5.07,0,0,1-1.73-1.16c-.41-.38-.81-.77-1.21-1.16a5.23,5.23,0,0,1-.45-.49.59.59,0,0,1,0-.74,1.92,1.92,0,0,1,.48-.55,6.57,6.57,0,0,1,1.14-.7c.72-.35,1.42-.73,2.14-1.09.33-.18.67-.34,1-.53a3.62,3.62,0,0,0,.81-.65,1.84,1.84,0,0,0,.32-.54.84.84,0,0,0,0-.66,3.46,3.46,0,0,0-.27-.5,4.87,4.87,0,0,0-.4-.5,2.72,2.72,0,0,1-.42-.64,1.36,1.36,0,0,1,0-1.15l.17-.39a.37.37,0,0,1,.27-.22,2.23,2.23,0,0,1,.36,0c1.11-.06,2.22-.05,3.32-.05a5.44,5.44,0,0,1,.58.05.77.77,0,0,1,.51.24l.73.74c.34.34.65.7,1,1a4.62,4.62,0,0,0,1.62.94l.76.23a2.77,2.77,0,0,1,1.13.64,6,6,0,0,1,1,1.3l0,.05a1.12,1.12,0,0,1,0,1.16,2.88,2.88,0,0,1-.89,1.07l-.65.5A10.2,10.2,0,0,1,127.66,20c-.5.24-1,.45-1.54.65s-1.08.47-1.61.73c-.72.35-1.43.72-2.15,1.08a4.39,4.39,0,0,0-.47.27l-1.19.74a5.22,5.22,0,0,0-.88.75l-.44.46a3.87,3.87,0,0,0-.56.72.57.57,0,0,0-.08.38.18.18,0,0,0,.21.17.57.57,0,0,0,.23-.08l1.26-.85c.29-.2.57-.39.86-.57a4.09,4.09,0,0,0,.66-.5,2.13,2.13,0,0,1,.85-.52l.23-.08a1.38,1.38,0,0,0,.7-.45.88.88,0,0,1,.52-.31l.62-.12a2.48,2.48,0,0,0,.81-.26l.58-.27a.86.86,0,0,1,.65,0l.26.1a11.5,11.5,0,0,1,1.69.91c.33.22.65.44,1,.68a4.32,4.32,0,0,1,.77.77,1,1,0,0,1,.22.94c-.06.18-.1.37-.18.55a8.49,8.49,0,0,1-.75,1.39c-.36.52-.73,1.05-1.08,1.58-.11.16-.21.32-.31.49A5.3,5.3,0,0,1,128,30a8.13,8.13,0,0,0-.59.82c-.12.18-.26.34-.38.51a7.38,7.38,0,0,0-.46.68,4.14,4.14,0,0,1-1.09,1.3l-.16.14a1,1,0,0,0-.23.39.41.41,0,0,0,.15.46.62.62,0,0,0,.22.1,2,2,0,0,0,.69.11l1.19,0h.94a.88.88,0,0,0,.62-.29l.18-.2.27-.33a1.56,1.56,0,0,1,1.52-.48,2.31,2.31,0,0,1,1.43.81,1.07,1.07,0,0,1,.14.16c.41.54.91,1,1.34,1.53s.83,1,1.23,1.55a5.74,5.74,0,0,1,.36.5,1.31,1.31,0,0,1,.06,1.36.94.94,0,0,1-.48.44,1.85,1.85,0,0,1-.8.19,5.58,5.58,0,0,1-1.15-.09c-.39-.06-.78-.14-1.16-.22a6.44,6.44,0,0,0-1.45-.16,4.84,4.84,0,0,1-1.2-.18A2.94,2.94,0,0,0,128,39a11.42,11.42,0,0,1-1.55.06l-2.22,0Z"/><path class="cls-1" d="M102.89,35.68a8.37,8.37,0,0,1,0-1c0-.4,0-.79,0-1.19,0-.8,0-1.6,0-2.4v-1.8c0-.38,0-.75,0-1.13,0-.81,0-1.62,0-2.43,0-.31,0-.61,0-.92a2.23,2.23,0,0,0-.1-1c-.05-.13-.08-.27-.12-.4a2.94,2.94,0,0,1-.15-1.05c0-1.1,0-2.2,0-3.3V17.61c0-1.2,0-2.39,0-3.59,0-.25,0-.49,0-.73a2.6,2.6,0,0,0-.7-1.59,2.12,2.12,0,0,0-1.52-.73l-2-.13-.46,0c-.43,0-.87-.06-1.3-.05-.7,0-1.4,0-2.1.07l-1.59.09c-.59,0-1.19.1-1.78.16-.42,0-.83.08-1.24.15-1.07.16-2.13.35-3.19.53a4.31,4.31,0,0,0-1.05.29,6.47,6.47,0,0,1-1.43.4,2.25,2.25,0,0,1-1.59-.25L82.23,12a.67.67,0,0,0-.72,0,2.34,2.34,0,0,0-.52.42,1.39,1.39,0,0,0-.36.82,11.85,11.85,0,0,1-.2,1.33,2.71,2.71,0,0,0,0,.9,12,12,0,0,1,0,1.8c0,.49-.06,1-.06,1.46,0,.79,0,1.58,0,2.37,0,1.28,0,2.56,0,3.84v1.89l0,1.25,0,.73c0,.57-.07,1.14-.08,1.7s0,1.3,0,2A16.25,16.25,0,0,1,80.06,35a2.13,2.13,0,0,0,.09,1c0,.12.08.25.13.37a2.22,2.22,0,0,0,1.28,1.27.75.75,0,0,0,.87-.17,2.06,2.06,0,0,0,.66-1.17,3.25,3.25,0,0,0,.06-.76c0-.63-.06-1.26-.08-1.89,0-.3,0-.6,0-.91a11,11,0,0,0,0-2.22,9.64,9.64,0,0,1,0-1.7c0-.55.08-1.09.1-1.64a8.88,8.88,0,0,0,0-1.46,9,9,0,0,1,0-1.37c0-.37,0-.73,0-1.1s0-.79,0-1.18a7.13,7.13,0,0,0,0-1.46,2.48,2.48,0,0,1,.07-.94c0-.12.06-.25.1-.38a3.08,3.08,0,0,0,.13-1.17c0-.59-.06-1.17-.09-1.76a1.44,1.44,0,0,1,.19-.82,2.17,2.17,0,0,1,.85-.85,6.07,6.07,0,0,1,1.34-.57,7.29,7.29,0,0,0,1.39-.54,1.14,1.14,0,0,1,.26-.09.92.92,0,0,1,1,.25,1.71,1.71,0,0,1,.37.62.83.83,0,0,1-.17.86,1.75,1.75,0,0,1-.52.41l-1.11.5c-.31.13-.62.25-.92.39a.94.94,0,0,0-.5.66,1.37,1.37,0,0,0,.18,1.08,3.72,3.72,0,0,0,.65.72,2.27,2.27,0,0,1,.38.44.67.67,0,0,1,0,.72,4.66,4.66,0,0,1-.39.65c-.25.34-.53.67-.8,1s-.45.5-.66.76-.44.58-.64.89a.88.88,0,0,0,0,.95,3.77,3.77,0,0,0,.34.54,1,1,0,0,0,.81.41c.16,0,.31,0,.46,0a1.23,1.23,0,0,1,.38.08.56.56,0,0,1,.36.64,1.11,1.11,0,0,1-.32.68L85.14,28c-.19.22-.38.45-.55.68a1,1,0,0,0-.21.63,2.59,2.59,0,0,0,.33,1.34,1.06,1.06,0,0,0,1,.57,2.23,2.23,0,0,0,1-.23l.65-.34a7.68,7.68,0,0,0,1.18-.68,2.34,2.34,0,0,1,.27-.15l.54-.29a4.21,4.21,0,0,0,.86-.61,5.32,5.32,0,0,1,.59-.44.92.92,0,0,1,.67-.12.46.46,0,0,1,.34.23,1,1,0,0,1,.12.65,2,2,0,0,1-.41,1,7.84,7.84,0,0,1-.54.61c-.37.39-.75.77-1.13,1.16a1.83,1.83,0,0,1-.26.21,2.45,2.45,0,0,1-1.42.35h-.89l-.75,0a1.67,1.67,0,0,1-.83-.16,1.32,1.32,0,0,0-.31-.12.82.82,0,0,0-.76.11,1.26,1.26,0,0,0-.33,1.54c.19.32.38.63.58.93a1.06,1.06,0,0,0,.37.36c.26.16.51.33.78.48s.3.17.45.25a.73.73,0,0,0,.73,0l.24-.13a3.88,3.88,0,0,1,1.32-.44c.34,0,.67-.06,1-.07s.76,0,1.13,0a5.66,5.66,0,0,0,1.64-.13,3.44,3.44,0,0,1,1.32-.09,4.28,4.28,0,0,0,1.13,0l1.14-.16,1-.1a1.7,1.7,0,0,0,.9-.33,1,1,0,0,0,.41-1.08,2,2,0,0,0-.11-.35,3.94,3.94,0,0,0-.86-1.17,1.71,1.71,0,0,0-.89-.44,2.94,2.94,0,0,1-.58-.16.67.67,0,0,1-.45-.5c0-.12-.07-.24-.09-.35a7.06,7.06,0,0,0-.37-1.29c-.06-.14-.11-.28-.16-.43A1.3,1.3,0,0,1,95,27.61a5.67,5.67,0,0,1,.86-1.25,17.12,17.12,0,0,0,1.21-1.49,1.48,1.48,0,0,0,.29-.91,3.54,3.54,0,0,0-.06-.73,3.72,3.72,0,0,1-.08-.57,2.58,2.58,0,0,0-.31-1.08c-.09-.18-.17-.36-.25-.55s-.08-.23-.12-.34a3.63,3.63,0,0,1-.1-1.18,1.91,1.91,0,0,1,.36-1.08c.09-.11.18-.22.26-.34a2.14,2.14,0,0,0,.4-.78,3,3,0,0,0,.07-1.12,1.12,1.12,0,0,0-.18-.48.66.66,0,0,0-.7-.32,1.35,1.35,0,0,0-.63.29,2.58,2.58,0,0,1-.6.36A.31.31,0,0,1,95,15.9a1.14,1.14,0,0,1-.1-.19,3.61,3.61,0,0,0-.45-.72,1.64,1.64,0,0,0-1.24-.67,5.54,5.54,0,0,0-.91,0,2.55,2.55,0,0,1-.91-.1.84.84,0,0,1-.48-.35.36.36,0,0,1,.05-.47.53.53,0,0,1,.12-.1,2.45,2.45,0,0,1,1.26-.41l1.15-.06c.41,0,.81,0,1.22,0,.25,0,.51,0,.76,0a4.63,4.63,0,0,0,1.11-.14,7.84,7.84,0,0,1,.81-.18,2.69,2.69,0,0,1,1.23.05,1.33,1.33,0,0,1,1,1.28v.64c0,.62,0,1.24,0,1.86,0,1.34,0,2.68,0,4v2.41a6.45,6.45,0,0,0,0,.76A5.86,5.86,0,0,1,99.51,25a7.41,7.41,0,0,0-.13,1.88c0,.31,0,.63,0,.94,0,1,0,2.05-.07,3.08a11,11,0,0,0,.06,1.52,7.64,7.64,0,0,1,0,1.91,2.68,2.68,0,0,0,0,.49c0,.18,0,.36,0,.55a.85.85,0,0,1-.15.54,3,3,0,0,1-.26.34l-.43.47a1,1,0,0,0-.29.69,2.68,2.68,0,0,0,.32,1.29,3.7,3.7,0,0,0,1,1.06.51.51,0,0,0,.27.12,1.79,1.79,0,0,0,1.16-.12c.27-.14.52-.31.78-.46a.57.57,0,0,0,.14-.13,3.49,3.49,0,0,0,.45-.68A5.06,5.06,0,0,0,102.89,35.68Zm-10.17-17c.14-.19.27-.38.42-.56s.29-.29.42-.44a2.5,2.5,0,0,1,1-.69.17.17,0,0,1,.25.13,1.1,1.1,0,0,1,0,.18v.4h0c0,.43-.09.87-.13,1.3a3.2,3.2,0,0,0,.07,1.27c.14.47.26.94.37,1.41,0,.25.07.5.1.75s0,.47.06.7a2.81,2.81,0,0,1-.12,1.08.76.76,0,0,1-.64.54.64.64,0,0,1-.72-.39,4.38,4.38,0,0,1-.24-.66c-.1-.41-.2-.83-.29-1.25-.16-.75-.35-1.49-.58-2.23a3.05,3.05,0,0,1-.17-1.08A.94.94,0,0,1,92.72,18.66Zm-2,6.49a2.21,2.21,0,0,1-.28.4,5.39,5.39,0,0,1-.43.39.77.77,0,0,1-.38.17,1,1,0,0,1-.3,0,.27.27,0,0,1-.2-.38,1.29,1.29,0,0,1,.18-.35,4.81,4.81,0,0,1,.42-.48.83.83,0,0,1,.66-.26h0C90.69,24.61,90.93,24.83,90.72,25.15Z"/><path class="cls-1" d="M265.1,37.6a.14.14,0,0,1,0-.06,1.47,1.47,0,0,0-.74-.93c-.19-.11-.4-.2-.59-.3a4.6,4.6,0,0,1-.53-.31,8,8,0,0,0-.88-.54c-.31-.17-.64-.32-.94-.5a11.1,11.1,0,0,0-1.34-.66,5.79,5.79,0,0,1-.71-.34c-.28-.13-.54-.29-.81-.42a9.32,9.32,0,0,1-1.07-.59c-.34-.22-.68-.44-1-.65a7,7,0,0,1-1.22-.95,1.55,1.55,0,0,1-.21-.23.74.74,0,0,1-.06-.85c0-.08.08-.16.13-.24a1.65,1.65,0,0,0,.23-.72,8,8,0,0,1,.18-1.29c.12-.44.25-.86.38-1.29a7.13,7.13,0,0,0,.26-1.13,1.15,1.15,0,0,0-.15-.79,10.7,10.7,0,0,0-1-1.45l-.2-.24a.64.64,0,0,1-.12-.43.84.84,0,0,1,.24-.51l.34-.39a9.45,9.45,0,0,0,1-1.47,4.79,4.79,0,0,1,.46-.71l.47-.57a3.54,3.54,0,0,0,.56-.86c.08-.2.16-.4.25-.59a2.5,2.5,0,0,0,.21-1,1.36,1.36,0,0,0-.34-1,12.46,12.46,0,0,0-.87-.91,2.17,2.17,0,0,0-1.51-.62h-.61a3.62,3.62,0,0,0-1.64.23,4.74,4.74,0,0,0-1.21.55c-.21.14-.41.27-.62.39a3.56,3.56,0,0,1-1.07.44,3.3,3.3,0,0,0-.63.2l-.82.35-1,.42a1.81,1.81,0,0,0-.87.77.56.56,0,0,0,0,.61,2.68,2.68,0,0,0,.18.28,3.71,3.71,0,0,0,1.39,1.12,1.41,1.41,0,0,1,.24.13.48.48,0,0,1,.18.61c0,.09-.09.18-.13.28l-.18.35c-.18.39-.36.77-.53,1.16l-.56,1.29-.42,1a1.38,1.38,0,0,1-.39.5,1.71,1.71,0,0,1-.79.38l-.72.12a2,2,0,0,0-.42.09.36.36,0,0,0-.27.39.5.5,0,0,0,.09.29l.26.34.3.38a.93.93,0,0,1,0,1.11,2.82,2.82,0,0,1-.24.36,2.52,2.52,0,0,1-.76.73,1.94,1.94,0,0,1-.7.28.59.59,0,0,1-.59-.17,1.89,1.89,0,0,0-.84-.47,1.69,1.69,0,0,1-.41-.19.59.59,0,0,1-.22-.86,2.28,2.28,0,0,1,.36-.46,2.7,2.7,0,0,0,.51-.78,7.94,7.94,0,0,0,.44-1.27,1.77,1.77,0,0,1,.2-.57,1,1,0,0,0,0-1.06,2.14,2.14,0,0,0-.78-.8l-.42-.25a3.57,3.57,0,0,1-.38-.3.38.38,0,0,1-.07-.5.89.89,0,0,1,.16-.22,4.27,4.27,0,0,1,.36-.38,2.5,2.5,0,0,0,.46-.56,16,16,0,0,1,1.15-1.79,8.59,8.59,0,0,0,1.28-2.34c.06-.18.16-.35.23-.53s.2-.44.29-.67a1.13,1.13,0,0,0-.21-1.25l-.09-.12-.52-.6a2.6,2.6,0,0,0-.65-.54.89.89,0,0,0-.53-.13,1.36,1.36,0,0,0-.56.11,2.54,2.54,0,0,0-.91.6l-.45.46a6.46,6.46,0,0,0-.95,1.41,2.82,2.82,0,0,1-.23.42c-.27.42-.55.83-.83,1.25-.11.17-.21.34-.31.52-.23.4-.44.8-.67,1.19s-.36.55-.54.82a2.33,2.33,0,0,0-.2.34,5.57,5.57,0,0,1-.52.92,6.41,6.41,0,0,0-.7,1.35c-.17.46-.31.93-.49,1.38s-.3.86-.44,1.3a1.49,1.49,0,0,0,0,1c0,.07.07.14.1.22a1.26,1.26,0,0,0,.34.42,1.51,1.51,0,0,0,1.17.34l.79-.08h.27a.32.32,0,0,1,.34.35,2,2,0,0,1,0,.42,1.78,1.78,0,0,1-.3.62,2.22,2.22,0,0,0-.4.95c0,.27-.1.54-.13.81s0,.61,0,.92a1.08,1.08,0,0,0,.19.57,1.9,1.9,0,0,0,.72.6.78.78,0,0,0,.56.05l.52-.16a2.77,2.77,0,0,1,.48-.11.3.3,0,0,1,.36.24,1,1,0,0,1,0,.34,1.68,1.68,0,0,1-.26.77,4.21,4.21,0,0,0-.53,1.38,7.5,7.5,0,0,0-.15,1.24,2.51,2.51,0,0,0,.15,1,1.67,1.67,0,0,0,.71.88.72.72,0,0,0,.9-.1c.13-.14.24-.3.36-.45s.18-.3.29-.43a5.89,5.89,0,0,0,.84-1.61,2.92,2.92,0,0,1,.14-.31.46.46,0,0,1,.43-.24,1.93,1.93,0,0,1,.42,0,2.18,2.18,0,0,1,1,.53,3,3,0,0,0,.78.53l1.07.49c.15.07.29.15.44.21a2.79,2.79,0,0,0,.55.2,6.14,6.14,0,0,0,1.48.14,1.74,1.74,0,0,0,.71-.15c.55-.25,1.11-.46,1.63-.75a3,3,0,0,0,.72-.55l.2-.2a.75.75,0,0,1,1.18,0l.78.76.39.39c.51.47,1.05.9,1.6,1.32a4.63,4.63,0,0,0,1.09.65l.39.19a2.35,2.35,0,0,0,1.1.3c.6,0,1.2,0,1.8,0a20.56,20.56,0,0,1,2.22,0,10.4,10.4,0,0,0,1.58,0l.3-.06C265.08,38.11,265.18,37.94,265.1,37.6ZM250,32.15a3.28,3.28,0,0,1-.45.31l-1,.55a3.36,3.36,0,0,1-.91.35,6.22,6.22,0,0,0-.84.25,2,2,0,0,1-.73.15l-.19,0a.54.54,0,0,1-.36-.72,1.22,1.22,0,0,1,.17-.29,1.71,1.71,0,0,1,.18-.2A5.32,5.32,0,0,0,247,31a9,9,0,0,0,.46-1l.08-.16a.44.44,0,0,1,.59-.21.79.79,0,0,1,.23.14,3.07,3.07,0,0,1,.26.25c.28.32.6.61.91.9.16.14.31.29.46.44a.71.71,0,0,1,.16.26A.53.53,0,0,1,250,32.15Zm3.11-6.8a2.21,2.21,0,0,1-.12.27,2.75,2.75,0,0,0-.32,1.08c-.05.35-.09.7-.14,1.05a3.11,3.11,0,0,1-.23.79.59.59,0,0,1-.55.35,1.25,1.25,0,0,1-.68-.25,1.38,1.38,0,0,1-.26-.22c-.42-.38-.84-.76-1.27-1.13a1,1,0,0,1-.37-1,10.74,10.74,0,0,1,.34-1.1,3.12,3.12,0,0,1,.15-.43.16.16,0,0,1,.29,0,.81.81,0,0,1,.12.14,1.92,1.92,0,0,0,.44.46,2.26,2.26,0,0,0,.26.16.69.69,0,0,0,.61,0A1.73,1.73,0,0,0,252,25l.23-.25a.64.64,0,0,1,.39-.22.45.45,0,0,1,.55.54A.87.87,0,0,1,253.12,25.35Zm.1-6a.61.61,0,0,1-.07.1,4.69,4.69,0,0,0-.79,1.18,1.24,1.24,0,0,1-.37.48l-.07.06a2.11,2.11,0,0,0-.78,1.13,1.51,1.51,0,0,1-.11.22.51.51,0,0,1-.13.16.13.13,0,0,1-.22-.06s0,0,0-.06v-.18a1.42,1.42,0,0,1,.23-.81,2.32,2.32,0,0,0,.31-.88,4.16,4.16,0,0,1,1-2.07,1.05,1.05,0,0,1,.27-.2.55.55,0,0,1,.82.55A.68.68,0,0,1,253.22,19.34Z"/><path class="cls-1" d="M230.38,29.93c-.09-.12-.18-.25-.28-.36a7.7,7.7,0,0,0-1.55-1.17c-.39-.2-.79-.37-1.19-.54a4.43,4.43,0,0,0-1.72-.37h-1.1a3.7,3.7,0,0,0-1.4.21,3,3,0,0,1-1.11.14l-.61,0-.21,0a.54.54,0,0,1-.48-.41,1,1,0,0,1,0-.45c0-.2.05-.4.07-.6a7.62,7.62,0,0,0,.09-1.58c0-.5,0-1,0-1.49,0-.28,0-.55,0-.83s0-.52,0-.79,0-.26,0-.39a10.42,10.42,0,0,1,.2-2.55,4.58,4.58,0,0,0,.09-.9,1.73,1.73,0,0,1,.17-.77,3.18,3.18,0,0,1,1.1-1.31l.81-.6a1,1,0,0,0,.31-.4,1.18,1.18,0,0,0-.25-1.33c-.22-.2-.46-.4-.7-.58a4,4,0,0,0-1-.54c-.37-.12-.74-.22-1.11-.32a3.54,3.54,0,0,0-.45-.08,3.44,3.44,0,0,1-1.33-.41c-.2-.12-.39-.25-.58-.39a1.38,1.38,0,0,0-.57-.28q-.3,0-.6-.06l-1,0h0l-.76,0a5,5,0,0,0-.67.05c-.29,0-.41.19-.28.52a5,5,0,0,0,.59,1.09,1.29,1.29,0,0,1,.18.35.35.35,0,0,1-.14.43,2.61,2.61,0,0,1-.28.17c-.53.26-1.07.51-1.58.8a6.88,6.88,0,0,1-1.5.65c-.41.12-.81.27-1.21.41a1.88,1.88,0,0,0-.39.16.69.69,0,0,0-.37.84,1.15,1.15,0,0,0,.31.52c.29.31.59.62.89.92a11.92,11.92,0,0,0,1.9,1.57c.13.1.27.18.39.28a.75.75,0,0,1,.23,1.05l-.27.44a2.5,2.5,0,0,0-.32.73,6.63,6.63,0,0,0-.21,2.26,3.05,3.05,0,0,1-.19,1.31,1.57,1.57,0,0,0,0,1.07l0,.09a8.21,8.21,0,0,1,.18.83,1.62,1.62,0,0,1-.7,1.59,6.18,6.18,0,0,1-1.36.68,12.45,12.45,0,0,0-1.85.77,3.92,3.92,0,0,1-.36.16c-.24.09-.48.17-.71.27a1.35,1.35,0,0,0-.7.61c-.19.33-.37.67-.55,1a1.57,1.57,0,0,0-.09.23.8.8,0,0,0,0,.57c.05.12.09.24.13.37a5.07,5.07,0,0,1,.32,1.2c0,.16,0,.32.08.48a5,5,0,0,0,.28,1.15c.24.51.46,1,.68,1.53a1.91,1.91,0,0,0,1,.93.68.68,0,0,0,.62,0,1.17,1.17,0,0,0,.34-.2,4.13,4.13,0,0,0,.7-.75.94.94,0,0,0,.12-.22,1.63,1.63,0,0,0,.07-1.19c-.07-.3-.19-.59-.28-.9s-.22-.74-.3-1.11a1.52,1.52,0,0,1,.39-1.38,1,1,0,0,1,.3-.25,2.94,2.94,0,0,1,.92-.31.54.54,0,0,1,.18,0,.31.31,0,0,1,.3.22A1.94,1.94,0,0,1,212,33c0,.34,0,.69.12,1,.15.71.32,1.41.48,2.11a1.8,1.8,0,0,0,.28.67,7.76,7.76,0,0,0,.89,1.16,1.2,1.2,0,0,0,.72.37,2.83,2.83,0,0,0,.82,0,6.74,6.74,0,0,0,1.16-.35,2.08,2.08,0,0,1,.89-.17h.34l1.24.06a3,3,0,0,0,.79-.05.8.8,0,0,0,.61-.54,4.58,4.58,0,0,0,.26-1.46,3.55,3.55,0,0,1,0-.46,3.13,3.13,0,0,1,.47-1.24,5.45,5.45,0,0,0,.29-.53,2.81,2.81,0,0,0,.16-1,1.54,1.54,0,0,0-.4-1.21,2.65,2.65,0,0,1-.21-.26,2.26,2.26,0,0,1-.16-.26.79.79,0,0,1,.4-1.12,1.82,1.82,0,0,1,.79-.18l.76,0a3.44,3.44,0,0,0,.85-.06l.78-.17a1.7,1.7,0,0,1,1.15.16.91.91,0,0,1,.54,1.11c0,.11,0,.21-.08.32-.07.34-.16.67-.22,1a11,11,0,0,1-.37,1.48c-.14.43-.33.85-.43,1.3a.91.91,0,0,1-.14.3,6.75,6.75,0,0,1-.47.59.94.94,0,0,1-1,.31,5.69,5.69,0,0,1-.69-.25l-.39-.17a.67.67,0,0,0-.42,0,.42.42,0,0,0-.3.65,1.37,1.37,0,0,0,.13.2c.19.27.39.53.57.8a4.78,4.78,0,0,0,.54.65c.14.15.3.28.43.43a11.33,11.33,0,0,0,1.71,1.61,1.2,1.2,0,0,0,.31.18,2.66,2.66,0,0,0,.89.18.83.83,0,0,0,.32-.07,3.25,3.25,0,0,0,1.24-1,5.51,5.51,0,0,0,.89-1.86c.12-.49.23-1,.36-1.47a10.4,10.4,0,0,0,.27-1.35,4.69,4.69,0,0,1,.23-1.22A3.39,3.39,0,0,1,230,32a2.35,2.35,0,0,0,.3-.45,2.17,2.17,0,0,0,.28-1A1.14,1.14,0,0,0,230.38,29.93Zm-15.2-10.64a1.3,1.3,0,0,1,1-.83,1.12,1.12,0,0,1,.6,0,.69.69,0,0,1,.47.48,1.86,1.86,0,0,1,.08.41c0,.33,0,.65.06,1a1.07,1.07,0,0,1-.36.95,1.23,1.23,0,0,1-1.2.26,1.15,1.15,0,0,1-.74-.75,1.72,1.72,0,0,1-.09-.63A2.3,2.3,0,0,1,215.18,19.29Zm1.45,5.89h-.1a.64.64,0,0,1-.47-.15.32.32,0,0,1-.11-.35.74.74,0,0,1,.7-.53.43.43,0,0,1,.37.24A.52.52,0,0,1,216.63,25.18ZM214.57,33a.85.85,0,0,1-.45-.13c-.18-.1-.37-.21-.55-.33a2.78,2.78,0,0,0-.76-.36,1.21,1.21,0,0,1-.2-.09.23.23,0,0,1-.11-.35.57.57,0,0,1,.42-.33c.21-.05.43-.08.65-.12a7.57,7.57,0,0,0,2-.57,4.68,4.68,0,0,1,.48-.18,1.24,1.24,0,0,1,.57-.06.55.55,0,0,1,.25.1.29.29,0,0,1,.1.41.9.9,0,0,1-.37.38,4.87,4.87,0,0,0-.52.37c-.21.2-.4.4-.59.62a4.52,4.52,0,0,1-.56.51A.54.54,0,0,1,214.57,33Zm3.06,2.09a1.47,1.47,0,0,1-.48.54,7.06,7.06,0,0,1-.64.42.68.68,0,0,1-1-.21,2.33,2.33,0,0,1-.2-.34,1.26,1.26,0,0,1-.1-.38.81.81,0,0,1,.47-.84,1.8,1.8,0,0,1,.89-.21,3.55,3.55,0,0,1,.65.12A.6.6,0,0,1,217.63,35.13Z"/><path class="cls-1" d="M169.28,23.44a2,2,0,0,0-.32-.17c-.26-.12-.52-.24-.78-.34a9.85,9.85,0,0,0-1.38-.49,6.72,6.72,0,0,1-.85-.32l-.71-.35a10.87,10.87,0,0,1-1.7-.95l-.54-.34a7.57,7.57,0,0,1-.67-.42c-.43-.33-.84-.68-1.26-1-.23-.19-.47-.36-.71-.53s-.6-.39-.88-.6-.58-.45-.85-.69c-.48-.43-.94-.87-1.41-1.3s-.69-.6-1-.92l-1.88-1.87a12.77,12.77,0,0,1-1.09-1.23,1,1,0,0,0-.13-.16.54.54,0,0,0-.87,0,2.43,2.43,0,0,0-.14.2l-.41.64a2.76,2.76,0,0,1-.39.51c-.42.46-.87.91-1.25,1.41-.24.31-.49.6-.75.89s-.46.51-.69.77l-.36.41a6.32,6.32,0,0,0-.52.64,16.74,16.74,0,0,1-1.08,1.43c-.46.57-.94,1.12-1.42,1.67s-.94,1-1.41,1.56c-.11.12-.22.24-.32.37s-.32.42-.49.62c-.3.37-.62.73-.92,1.1l-.78.94c-.12.15-.27.3-.39.46-.29.38-.57.77-.85,1.16l-.17.24a.75.75,0,0,0,0,.86,1.45,1.45,0,0,0,.17.26,4.13,4.13,0,0,0,.34.39,2.31,2.31,0,0,0,.78.57,7.08,7.08,0,0,0,.78.25,1.57,1.57,0,0,0,.57,0,1.25,1.25,0,0,0,.85-.5c.37-.44.77-.85,1.19-1.26a5.38,5.38,0,0,0,.83-1,8.79,8.79,0,0,1,.57-.79c.75-.87,1.46-1.77,2.16-2.68.18-.23.35-.47.52-.71a2.62,2.62,0,0,1,.22-.25.59.59,0,0,1,.76-.11,2.21,2.21,0,0,1,.6.41,1.54,1.54,0,0,1,.39.81c0,.19,0,.3-.23.38l-.15,0a2.07,2.07,0,0,0-1,.69,4.86,4.86,0,0,1-.94.87c-.23.16-.45.34-.67.52a1.52,1.52,0,0,0-.26.3.63.63,0,0,0-.07.58,1.2,1.2,0,0,0,.15.3,3.09,3.09,0,0,0,.36.45c.28.25.56.5.85.74a2.68,2.68,0,0,0,.78.46l.49.18.36.16a.24.24,0,0,1,.11.36,1.21,1.21,0,0,1-.24.35,1.75,1.75,0,0,1-1,.52l-.63.15a2.85,2.85,0,0,0-.73.29.65.65,0,0,0-.36.5,1,1,0,0,0,0,.45,1.49,1.49,0,0,0,.44.68q.33.27.69.51a1.36,1.36,0,0,0,.68.24l.36.05c.5.08.54.44.45.76a.51.51,0,0,1-.07.17,3.58,3.58,0,0,1-.31.45,6.11,6.11,0,0,1-1.23,1c-.21.14-.42.28-.64.41a3.13,3.13,0,0,0-.76.78.76.76,0,0,0,0,.84,2.54,2.54,0,0,0,.76.9c.3.22.62.43.93.63a1.79,1.79,0,0,0,1.19.27,14,14,0,0,1,1.58-.07l1.25,0a2.62,2.62,0,0,0,.28,0l1.46,0a8.56,8.56,0,0,1,1.24,0,4.2,4.2,0,0,0,1.37,0,3.43,3.43,0,0,1,1.39-.06l.24,0a.76.76,0,0,0,.55-.13,3.49,3.49,0,0,0,.95-.7,3.12,3.12,0,0,0,.63-1,.92.92,0,0,0,0-.71,3.09,3.09,0,0,0-.95-1.35c-.2-.16-.41-.3-.62-.45a1.65,1.65,0,0,0-.92-.27l-.82,0a4.21,4.21,0,0,0-1.69.33l-.18.06a.87.87,0,0,1-1-.31.58.58,0,0,1,0-.76,4.12,4.12,0,0,1,.33-.4c.21-.21.43-.43.66-.63a20.94,20.94,0,0,0,1.78-1.87,2.36,2.36,0,0,0,.42-.74,1.14,1.14,0,0,0,0-.75,1.68,1.68,0,0,0-.49-.79,7,7,0,0,0-.61-.46c-.28-.17-.58-.32-.88-.47s-.34-.15-.49-.24a.44.44,0,0,1-.22-.57.67.67,0,0,1,.28-.36l.86-.68a3.5,3.5,0,0,0,.73-.85,1.43,1.43,0,0,0,.21-1.05,2.22,2.22,0,0,0-.18-.67,1.81,1.81,0,0,0-1.12-1.09L155.6,22a1.09,1.09,0,0,1-.23-.09.3.3,0,0,1-.17-.3.58.58,0,0,1,.11-.34c.14-.18.28-.37.44-.54a1.42,1.42,0,0,1,.74-.4.74.74,0,0,1,.39,0,1.59,1.59,0,0,1,.63.36l.3.25c.5.42,1,.83,1.46,1.3a9.39,9.39,0,0,0,1.26,1.09,10.19,10.19,0,0,1,.93.79,8.29,8.29,0,0,0,1.15.9,2.55,2.55,0,0,0,.43.23c.33.14.66.28,1,.39a1.76,1.76,0,0,0,1.37.08,13.09,13.09,0,0,0,2.83-1,3.06,3.06,0,0,1,.71-.27,1.2,1.2,0,0,0,.31-.13A.5.5,0,0,0,169.28,23.44ZM151.11,19a.2.2,0,0,1-.25-.05.21.21,0,0,1,0-.25,1.13,1.13,0,0,1,.54-.47.21.21,0,0,1,.11,0,.62.62,0,0,1,.12.08v.06A.89.89,0,0,1,151.11,19Zm3.6-.45a.7.7,0,0,1-.32-.05,2.66,2.66,0,0,1-.77-.43,2.41,2.41,0,0,0-.83-.42l-.39-.07a.26.26,0,0,1-.23-.31,1.09,1.09,0,0,1,.38-.73.57.57,0,0,1,.42-.16.94.94,0,0,1,.54.18,1.43,1.43,0,0,1,.24.19l.73.64a1.41,1.41,0,0,1,.44.61,1,1,0,0,1,0,.3A.25.25,0,0,1,154.71,18.59Z"/><path class="cls-1" d="M324.9,23.08a.73.73,0,0,0-.2-.4,5.2,5.2,0,0,0-.63-.53,2.77,2.77,0,0,0-2-.42l-.69.12a1.37,1.37,0,0,1-.57,0c-.39-.09-.61-.27-.56-.73a7.61,7.61,0,0,1,.35-1.64c.1-.33.22-.65.34-1a9.92,9.92,0,0,0,.57-2.05,5.37,5.37,0,0,1,.51-1.62l.17-.36a3.34,3.34,0,0,0,.32-1.59A2.06,2.06,0,0,0,320.59,11a7.9,7.9,0,0,0-1.19,0,3.44,3.44,0,0,0-.95.21l-1.32.47a1.27,1.27,0,0,1-.92,0l-1-.37a1.41,1.41,0,0,1-.34-.19,1.3,1.3,0,0,0-.82-.29h-1a1.09,1.09,0,0,0-.36.06.18.18,0,0,0-.14.26c.05.14.11.28.17.42a2.27,2.27,0,0,1,.19.61.74.74,0,0,1-.31.75,1.45,1.45,0,0,1-.51.26l-.59.13a1.76,1.76,0,0,0-.55.17.65.65,0,0,0-.32.35.4.4,0,0,0,.1.45l.28.28a1.88,1.88,0,0,1,.52,1.56.94.94,0,0,1-.22.5.35.35,0,0,1-.61,0,.39.39,0,0,1-.06-.11,1.63,1.63,0,0,1-.13-.37c-.07-.36-.13-.72-.19-1.08,0-.16-.05-.32-.06-.48A.77.77,0,0,0,310,14a1.26,1.26,0,0,1-.31-.38c-.1-.16-.2-.33-.31-.49a2.65,2.65,0,0,0-.93-.86c-.29-.16-.59-.31-.89-.46a1.69,1.69,0,0,0-.31-.13.53.53,0,0,0-.7.37,1.42,1.42,0,0,0-.08.5,3.19,3.19,0,0,0,.37,1.46,8,8,0,0,1,.92,2.63,2.77,2.77,0,0,0,.22.76,6.42,6.42,0,0,1,.42,1.21,10.69,10.69,0,0,0,.72,2.13,2.68,2.68,0,0,1,.23,1.18c0,.13,0,.27,0,.4v.26c.09.16.23.18.34.26a1.56,1.56,0,0,1,.4.27.76.76,0,0,1,0,1.16.33.33,0,0,1-.42.05.69.69,0,0,1-.28-.35,1.85,1.85,0,0,1-.12-1,.6.6,0,0,0-.2-.57,1.85,1.85,0,0,1-.64-1.11,1.13,1.13,0,0,0-.43-.75c-.2-.18-.42-.34-.64-.51a1,1,0,0,0-.41-.19.47.47,0,0,0-.6.27,1.11,1.11,0,0,0-.08.78c.05.17.1.35.16.52a4.55,4.55,0,0,1,.21.51c.15.53.38,1,.57,1.54a8.07,8.07,0,0,1,.33.94,1,1,0,0,1-.06.63,2.14,2.14,0,0,1-.94,1.05,2.6,2.6,0,0,1-.76.29,1.51,1.51,0,0,1-1.06-.16l-.61-.35a.72.72,0,0,0-.59-.06,1.42,1.42,0,0,0-.94.8,1.77,1.77,0,0,0-.06,1.26,2.74,2.74,0,0,0,.36.8L303,29c.13.26.27.52.39.79a8.41,8.41,0,0,0,.72,1.23,1.09,1.09,0,0,0,.71.49.71.71,0,0,0,.87-.43,1.57,1.57,0,0,0,.17-.7c0-.28,0-.55-.08-.82a3.41,3.41,0,0,1,0-1.15.88.88,0,0,1,.31-.55,2.76,2.76,0,0,1,.61-.39c.31-.16.63-.3.92-.48a6.18,6.18,0,0,1,1.41-.7,3.56,3.56,0,0,0,1.07-.57.87.87,0,0,1,.47-.21c.22,0,.44,0,.67,0a.57.57,0,0,1,.14,0,.21.21,0,0,1,.12.34l-.11.15c-.09.16-.2.32-.28.5a.64.64,0,0,0,.15.8,1.79,1.79,0,0,0,.42.3,1.17,1.17,0,0,0,1.13.07l.43-.17a2.69,2.69,0,0,1,1-.11c.18,0,.24.09.24.26s0,.34,0,.51a1.41,1.41,0,0,1-.38.88,1.73,1.73,0,0,1-.74.48,5.09,5.09,0,0,1-.77.19,4.42,4.42,0,0,0-1.87.75.9.9,0,0,0-.2.19.88.88,0,0,0-.14,1,1.06,1.06,0,0,0,.38.46,4.76,4.76,0,0,0,1,.54,1.33,1.33,0,0,0,1,0,5.09,5.09,0,0,1,1.09-.26,1.45,1.45,0,0,1,.55,0,.55.55,0,0,1,.4.38.76.76,0,0,1,0,.21c0,.3,0,.59,0,.88s0,.27,0,.4c0,.34.05.69.05,1a1.76,1.76,0,0,1-.53,1.32,1,1,0,0,1-1,.34,5,5,0,0,1-1.56-.67c-.12-.09-.25-.17-.38-.25a2.73,2.73,0,0,1-.89-.9,4.59,4.59,0,0,0-.33-.44.69.69,0,0,0-.18-.16.35.35,0,0,0-.58.18,1.31,1.31,0,0,0,.26,1.31c.18.19.34.4.51.6a5.24,5.24,0,0,0,1,1l.78.58,1.3.91.19.1,1.1.52A2.16,2.16,0,0,0,315,40c.4.06.81.11,1.21.15a1.08,1.08,0,0,0,.36,0,1.45,1.45,0,0,0,.83-.58c.06-.1.14-.18.2-.27a2.49,2.49,0,0,0,.53-1.62c0-.53-.05-1.07-.08-1.61,0-.26,0-.53-.06-.79s-.13-.72-.18-1.08a4.78,4.78,0,0,1-.08-.75,9.07,9.07,0,0,1,.06-.91.89.89,0,0,1,.38-.67l.49-.31a12.9,12.9,0,0,0,1.43-1,1.49,1.49,0,0,0,.52-.88,1,1,0,0,0-.4-1.05,1.39,1.39,0,0,0-1.26-.26,2.36,2.36,0,0,0-.38.1,1.72,1.72,0,0,1-.64,0,.57.57,0,0,1-.35-.16.47.47,0,0,1,0-.68.83.83,0,0,1,.46-.2l.6-.13a1.47,1.47,0,0,0,.52-.25.83.83,0,0,0,.32-.46c0-.13.08-.26.11-.38a.79.79,0,0,1,.65-.61,2.59,2.59,0,0,1,.55-.07c.52,0,1.05,0,1.58,0a4.55,4.55,0,0,0,2.09-.45.8.8,0,0,0,.39-.38,1.22,1.22,0,0,0,.13-.46A5.18,5.18,0,0,0,324.9,23.08Zm-12.28-1.54a.72.72,0,0,1-.36.23.42.42,0,0,1-.5-.23.51.51,0,0,1-.07-.17c0-.3-.06-.6-.08-.91a.63.63,0,0,1,0-.27.55.55,0,0,1,.77-.41.89.89,0,0,1,.57.91A1.42,1.42,0,0,1,312.62,21.54Zm1.28,1.08a1.75,1.75,0,0,1,.66-.88.57.57,0,0,1,.7,0,1.44,1.44,0,0,1,.37.48.52.52,0,0,1-.25.72,2,2,0,0,1-.84.18l-.37-.06C313.91,23,313.81,22.87,313.9,22.62Zm1.41-3.29c0-.15.05-.3.09-.45s.12-.36.19-.54a1.07,1.07,0,0,1,.45-.55.75.75,0,0,1,.79,0,.5.5,0,0,1,.27.53,1.36,1.36,0,0,1-.07.35c-.11.32-.23.63-.35.94a1.32,1.32,0,0,1-.34.47.58.58,0,0,1-.38.17.51.51,0,0,1-.44-.22A1.15,1.15,0,0,1,315.31,19.33Zm.93,8a1,1,0,0,1-.76.2l-.49-.08c-.24-.06-.29-.19-.17-.41a1,1,0,0,1,.18-.23,1.46,1.46,0,0,1,.77-.34H316a.44.44,0,0,1,.43.32A.47.47,0,0,1,316.24,27.31Zm1.13-2.18a.68.68,0,0,1-.53.36,1.38,1.38,0,0,1-.57-.07,4.46,4.46,0,0,0-1.3-.29,4.4,4.4,0,0,0-.73.06,2.18,2.18,0,0,1-.51,0,.58.58,0,0,1-.31-.18.15.15,0,0,1,.08-.26c.18,0,.36,0,.54-.06a1.83,1.83,0,0,0,.87-.1l.64-.19a1.18,1.18,0,0,1,.72,0c.28.08.55.19.83.3a1,1,0,0,1,.25.17A.19.19,0,0,1,317.37,25.13Zm1.12-9.55a1.15,1.15,0,0,1-.76.26H316.3l-.66,0a.8.8,0,0,1-.26-.09.46.46,0,0,1-.31-.59,2.67,2.67,0,0,1,.47-1.11,1.1,1.1,0,0,1,1.09-.46,2.15,2.15,0,0,1,.61.18l.93.47a1.22,1.22,0,0,1,.47.46A.68.68,0,0,1,318.49,15.58Z"/><path class="cls-1" d="M177.66,19.19a3,3,0,0,1-.11-1.11,3.23,3.23,0,0,0,0-1,3.34,3.34,0,0,0-1.26-2l-.28-.19a.91.91,0,0,0-.56-.1A.45.45,0,0,0,175,15a2.07,2.07,0,0,0-.13.4,15.14,15.14,0,0,0-.21,1.63,6.86,6.86,0,0,1-.27,1.62,2.54,2.54,0,0,0-.09.48,3.74,3.74,0,0,0,0,.67c0,.38,0,.77,0,1.15a7.88,7.88,0,0,1-.17,1.94,5.85,5.85,0,0,0-.11,1.72,12.64,12.64,0,0,1,.05,1.37c0,.57,0,1.14,0,1.71s0,1,0,1.49,0,.71,0,1.07c0,.18,0,.36,0,.54v2.08h0c0,.6,0,1.21,0,1.82a5,5,0,0,0,.06,1.09,10.7,10.7,0,0,0,.41,1.5,3.2,3.2,0,0,0,1,1.38.66.66,0,0,0,.87.06c.12-.09.25-.18.36-.28a2.15,2.15,0,0,0,.61-.82,9.88,9.88,0,0,0,.46-1.61,3.73,3.73,0,0,0,.05-.82c0-.39,0-.79,0-1.18s0-.69,0-1c0-1.1,0-2.19,0-3.29s0-2.28,0-3.41c0-.58,0-1.16,0-1.74,0-.79,0-1.58,0-2.37,0-.58,0-1.16,0-1.74a2.61,2.61,0,0,0-.05-.48C177.8,19.68,177.72,19.44,177.66,19.19Zm21.84,17c0-.32,0-.64-.08-1a6,6,0,0,1,0-1.12,6.48,6.48,0,0,0-.05-1.76,7.78,7.78,0,0,1-.12-1.67,5.42,5.42,0,0,0-.13-1.39,7.23,7.23,0,0,1-.17-2,2.83,2.83,0,0,0-.09-.87,8.19,8.19,0,0,1-.27-2.41c0-.56,0-1.12,0-1.68,0-.74,0-1.48,0-2.22s0-1.34,0-2c0-.91,0-1.81,0-2.72a2.93,2.93,0,0,1,.23-1.21l.19-.42a1,1,0,0,0,0-.94c-.22-.37-.43-.73-.67-1.09a6.26,6.26,0,0,0-.41-.49.65.65,0,0,0-.39-.21,4.57,4.57,0,0,0-.52,0h-2.77c-.35,0-.71,0-1.06.06a2.31,2.31,0,0,0-.59.14,3.56,3.56,0,0,0-1.61,1.31.52.52,0,0,0,.07.74,1.31,1.31,0,0,0,.58.31,5.62,5.62,0,0,0,1.87.19h.49a1.44,1.44,0,0,1,1.38.87,1.49,1.49,0,0,1-.18,1.56.47.47,0,0,1-.6.14,1.45,1.45,0,0,1-.32-.18l-.75-.45a2.07,2.07,0,0,0-1.06-.27,1.8,1.8,0,0,0-.56.11,5.69,5.69,0,0,1-.69.25.67.67,0,0,1-.89-.41.3.3,0,0,0,0-.08c-.14-.33-.29-.65-.44-1a2.49,2.49,0,0,0-.71-.9,1.26,1.26,0,0,0-.73-.27.87.87,0,0,0-.72.27,2.35,2.35,0,0,0-.5.9,5.84,5.84,0,0,1-.24.66c-.06.15-.12.29-.19.44l-.42.95a1.49,1.49,0,0,1-.2.31,2.18,2.18,0,0,0-.28.46,6.92,6.92,0,0,1-.7,1.35c-.09.13-.16.28-.24.42a5.52,5.52,0,0,1-.74,1.05,7.49,7.49,0,0,0-.73.93,2.78,2.78,0,0,1-.27.33c-.18.22-.45.2-.55-.12a.93.93,0,0,1,.09-.81,2.57,2.57,0,0,1,.28-.37,1.26,1.26,0,0,0,.33-.73,2.33,2.33,0,0,0-.24-1.42,3.49,3.49,0,0,1-.2-.44.57.57,0,0,1,0-.48,2,2,0,0,1,.14-.3,4.2,4.2,0,0,1,.86-1,14,14,0,0,0,1.43-1.45.62.62,0,0,0,.18-.38,1,1,0,0,0-.27-.9l-.25-.22c-.27-.22-.54-.45-.83-.67a7.42,7.42,0,0,0-.64-.46,1.52,1.52,0,0,0-.69-.22l-.85,0c-.8-.06-1.6-.07-2.4-.06a3.32,3.32,0,0,0-.94.12,1.56,1.56,0,0,0-.61.32.7.7,0,0,0-.26.53,1.1,1.1,0,0,0,.22.72,4.5,4.5,0,0,0,.59.65,6.29,6.29,0,0,0,1,.74q.38.24.72.51a1.12,1.12,0,0,1,.42,1.08,1.25,1.25,0,0,1-.47.83c-.22.18-.46.34-.69.51s-.31.19-.45.3a.76.76,0,0,0-.25,1,2.2,2.2,0,0,0,.17.25,1.94,1.94,0,0,0,.58.49l.43.28a1.11,1.11,0,0,1,.53,1.06l0,.34a3,3,0,0,0,0,.42,2.48,2.48,0,0,1-.17,1.14c-.05.14-.11.28-.17.42a5.24,5.24,0,0,0-.41,1.4,4.8,4.8,0,0,1-.33,1.29,2.38,2.38,0,0,0-.11.38,1,1,0,0,0,0,.3,2.37,2.37,0,0,0,.48,1.14.83.83,0,0,0,.87.31,1.51,1.51,0,0,0,.89-.48c.09-.11.19-.22.27-.33a14.83,14.83,0,0,1,1.09-1.39l.48-.55a7.7,7.7,0,0,0,1.31-1.94,4,4,0,0,1,.59-1,2.43,2.43,0,0,0,.33-.64,4.18,4.18,0,0,1,.67-1.29,3.5,3.5,0,0,0,.24-.42c.09-.17.17-.35.27-.52a.84.84,0,0,1,.18-.2.17.17,0,0,1,.24,0,.63.63,0,0,1,.13.24,1.7,1.7,0,0,1,0,.39c0,.26-.07.51-.09.76,0,.42-.06.85-.07,1.28a14.8,14.8,0,0,0,.07,2,3.82,3.82,0,0,0,.88,2,7.28,7.28,0,0,0,.54.58,1.53,1.53,0,0,0,1.57.4,7.29,7.29,0,0,1,1.32-.23,2.82,2.82,0,0,0,1.37-.45c.33-.22.69-.42,1-.63a4.45,4.45,0,0,1,.48-.26c.42-.19.65,0,.73.34a2.24,2.24,0,0,1,.05.52c0,.55,0,1.11,0,1.67a12.17,12.17,0,0,0,.12,1.91c.07.43.12.85.15,1.27a11.16,11.16,0,0,1,0,1.53,9.4,9.4,0,0,0,0,1.3c0,.36,0,.71,0,1.07a1.58,1.58,0,0,1-.31.85,1,1,0,0,1-.73.43,2.36,2.36,0,0,1-.46,0,11.58,11.58,0,0,1-1.41-.25,3.22,3.22,0,0,0-.62-.11.73.73,0,0,0-.52.12.32.32,0,0,0-.14.32,1.18,1.18,0,0,0,.07.2,3,3,0,0,0,.31.45c.29.33.59.64.91.94A19,19,0,0,0,194.36,39a5.16,5.16,0,0,0,1.14.65c.08,0,.17.07.25.12a2.44,2.44,0,0,0,.72.24,5,5,0,0,0,1.54.09,1.21,1.21,0,0,0,.68-.3l.49-.42a.91.91,0,0,0,.28-.46,2.69,2.69,0,0,0,.06-.63C199.51,37.54,199.51,36.85,199.5,36.16ZM190,20.31a1.94,1.94,0,0,1,0-.24c0-.2,0-.4,0-.61s0-.62,0-.94,0-.4,0-.6c.07-.47.29-.59.76-.47a1.09,1.09,0,0,1,.37.19,3,3,0,0,1,.73.81.86.86,0,0,1,0,.95l-.5.94a.6.6,0,0,1-.6.37h-.1a1.86,1.86,0,0,1-.33,0A.42.42,0,0,1,190,20.31Zm5.18.28a.9.9,0,0,1-.49.8,4.6,4.6,0,0,1-.55.25c-.48.23-1,.45-1.45.69s-.92.47-1.38.71l-.2.07a.52.52,0,0,1-.63-.66,1.73,1.73,0,0,1,.2-.41,3.89,3.89,0,0,0,.56-1,.41.41,0,0,1,.33-.28l.23-.07a1.56,1.56,0,0,0,.72-.43,5.28,5.28,0,0,1,1-.8c.26-.16.5-.36.74-.53a2.37,2.37,0,0,1,.33-.22.31.31,0,0,1,.47.19,1.75,1.75,0,0,1,.09.6V20h0Z"/><path class="cls-1" d="M293,17.86c-.34-.39-.69-.75-1-1.11s-.52-.52-.78-.78a1.46,1.46,0,0,0-.61-.39L288.75,15a2.07,2.07,0,0,0-.42-.08,4,4,0,0,0-1.73.29,2,2,0,0,1-.34.13.89.89,0,0,1-.62-.05.48.48,0,0,1-.28-.65,1,1,0,0,1,.19-.31c.12-.16.25-.32.38-.47a.54.54,0,0,0,.11-.57,3.39,3.39,0,0,0-.18-.39,5.06,5.06,0,0,0-1.42-1.6,1.64,1.64,0,0,0-.78-.33l-1.34-.11c-.2,0-.4,0-.6,0a.81.81,0,0,0-.67.31c-.16.17-.3.36-.44.54a1.43,1.43,0,0,0-.15.27.73.73,0,0,0,.06.73c.14.21.3.41.45.61a2,2,0,0,1,.37.66,3.06,3.06,0,0,1,0,1.59.9.9,0,0,1-.6.64l-.44.12-1.8.33a3.47,3.47,0,0,0-1.13.36l-.43.22a3.49,3.49,0,0,1-2,.34,7.84,7.84,0,0,0-1.19-.08,7.44,7.44,0,0,0-1.24.12,1.1,1.1,0,0,0-.91,1.13,1.62,1.62,0,0,0,.11.62c.08.17.14.34.22.51a4.77,4.77,0,0,1,.38,1.12,5,5,0,0,0,.23.75c.12.34.27.66.4,1l.33.72c.09.23.19.45.26.68a3.1,3.1,0,0,0,.25.56l.27.44.94,1.53.12.17c.23.31.47.61.69.93a3.56,3.56,0,0,0,.79.76,1.51,1.51,0,0,0,.95.27,3.29,3.29,0,0,0,1.11-.27c.33-.14.66-.26,1-.38a1.8,1.8,0,0,1,.56-.11c.28,0,.49,0,.59.45a3,3,0,0,1,.1,1.24,3.26,3.26,0,0,0,0,.54c0,.61,0,1.22,0,1.83s0,1,0,1.43c0,.24,0,.49,0,.73,0,.49.05,1,.07,1.46h0c0,.26,0,.53,0,.79a3.82,3.82,0,0,0,.2,1.38,1.7,1.7,0,0,1,.1.32c.11.45.3.88.45,1.32a.57.57,0,0,0,.2.3,1.06,1.06,0,0,0,.84.21,2.32,2.32,0,0,0,.84-.32,2.94,2.94,0,0,0,1.28-1.9,2,2,0,0,0,0-.81,7.79,7.79,0,0,1-.06-1.28c0-.56,0-1.13,0-1.7s0-1.36,0-2c0-.15,0-.3,0-.45,0-.57,0-1.14,0-1.71,0-.4,0-.81,0-1.22s0-.58-.05-.88c0-.06,0-.12,0-.18a.94.94,0,0,1,.5-.91,2.26,2.26,0,0,1,.35-.17,6.84,6.84,0,0,1,1.61-.31c.33,0,.65,0,1,0A1.79,1.79,0,0,0,289,26a6.8,6.8,0,0,0,.76-.39,3.14,3.14,0,0,0,.57-.45.87.87,0,0,0,.29-.71,1.46,1.46,0,0,0-.42-.93,3.66,3.66,0,0,0-1.29-.9l-1.07-.44a1.17,1.17,0,0,1-.31-.17.15.15,0,0,1,0-.26,1.67,1.67,0,0,1,.33-.21,3.14,3.14,0,0,1,1-.23,6.76,6.76,0,0,0,1.78-.4,5,5,0,0,0,1.54-.9,6.24,6.24,0,0,0,.86-1A.78.78,0,0,0,293,17.86ZM281,21.54a3.83,3.83,0,0,0-.09,1.12,2.07,2.07,0,0,1,0,.43,1.22,1.22,0,0,1-.44.84,2.22,2.22,0,0,1-.77.42l-1,.25a1.26,1.26,0,0,1-.39,0,.88.88,0,0,1-.72-.45,3.67,3.67,0,0,1-.42-1.07c0-.17-.05-.34-.08-.51a.92.92,0,0,1,.26-.84,4.51,4.51,0,0,1,.53-.45,9.77,9.77,0,0,1,1.75-1l.6-.28a2.45,2.45,0,0,1,.43-.15.36.36,0,0,1,.47.31c0,.12,0,.24.06.34C281,20.88,281,21.21,281,21.54Zm6.48-2.26a3.19,3.19,0,0,1-.4.33c-.29.2-.57.41-.87.61a2,2,0,0,1-.82.29h-.12a.42.42,0,0,1-.44-.31,1.42,1.42,0,0,1-.11-.5,1.13,1.13,0,0,1,.53-1.08,5,5,0,0,1,1.35-.62,1.3,1.3,0,0,1,.48,0,.7.7,0,0,1,.64.49A.74.74,0,0,1,287.43,19.28Z"/><line class="cls-3" x1="342.37" y1="9.8" x2="342.37" y2="59.8"/><text class="cls-4" transform="translate(358.37 48.35)">圖書館</text></g></svg>